<?xml version="1.0" standalone="no"?>
<!DOCTYPE svg PUBLIC "-//W3C//DTD SVG 20010904//EN"
 "http://www.w3.org/TR/2001/REC-SVG-20010904/DTD/svg10.dtd">
<svg version="1.0" xmlns="http://www.w3.org/2000/svg"
 width="300.000000pt" height="300.000000pt" viewBox="0 0 300.000000 300.000000"
 preserveAspectRatio="xMidYMid meet">
<metadata>
Created by potrace 1.10, written by Peter Selinger 2001-2011
</metadata>
<g transform="translate(0.000000,300.000000) scale(0.100000,-0.100000)"
fill="#000000" stroke="none">
<path d="M1380 2689 c-133 -11 -361 -99 -503 -193 -80 -53 -203 -161 -231
-203 -22 -31 -23 -39 -13 -60 20 -38 287 -313 304 -313 9 0 60 42 113 94 75
72 118 104 181 135 45 23 85 39 88 35 3 -3 8 -266 11 -584 4 -430 8 -582 17
-591 17 -17 443 -13 459 4 9 9 13 174 17 592 3 423 7 580 16 583 34 11 237
-110 346 -206 38 -34 74 -62 80 -62 15 0 176 142 258 228 62 65 67 73 56 94
-29 57 -171 183 -305 270 -95 61 -251 126 -394 163 -66 17 -365 25 -500 14z
m446 -35 c258 -53 465 -160 646 -334 l93 -90 -145 -140 c-79 -77 -149 -140
-155 -140 -6 0 -31 21 -55 46 -65 67 -235 177 -328 213 -45 17 -83 31 -84 31
-2 0 -2 -275 -1 -610 l2 -610 -219 0 -220 0 0 610 0 610 -52 -21 c-110 -42
-197 -101 -283 -190 l-84 -87 -147 154 -147 155 39 41 c212 222 460 343 784
382 67 8 279 -4 356 -20z"/>
<path d="M553 2162 c-34 -46 -99 -181 -126 -262 -66 -200 -80 -464 -33 -682
49 -234 155 -431 317 -590 135 -132 261 -210 430 -263 46 -15 95 -34 109 -43
20 -13 69 -15 305 -16 299 0 280 -3 460 56 104 34 237 104 338 181 121 91 217
183 217 209 0 22 -262 294 -292 304 -23 7 -44 -6 -134 -84 -98 -83 -167 -126
-259 -160 -127 -47 -144 -51 -255 -57 -347 -21 -647 177 -755 497 -23 69 -29
106 -33 213 -5 134 -1 156 49 331 7 22 9 51 6 65 -7 26 -295 330 -313 329 -5
0 -20 -13 -31 -28z m87 -49 c30 -32 90 -96 134 -143 128 -134 120 -121 101
-166 -45 -104 -50 -135 -50 -304 0 -146 3 -174 24 -240 49 -157 129 -276 244
-363 141 -108 272 -155 453 -164 243 -12 438 63 650 253 l72 65 138 -146 c77
-80 139 -151 139 -159 0 -15 -87 -93 -195 -176 -214 -163 -412 -233 -700 -246
-445 -21 -800 133 -1036 449 -204 273 -277 657 -193 1017 10 47 24 99 30 115
20 55 123 265 129 265 4 0 31 -26 60 -57z"/>
</g>
</svg>
